<svg xmlns="http://www.w3.org/2000/svg" width="1229" height="1024"><path fill="#757575" d="M947.2 0H281.6c-42.342 0-76.8 34.458-76.8 76.8v460.8c0 42.342 34.458 76.8 76.8 76.8h665.6c42.342 0 76.8-34.458 76.8-76.8V76.8C1024 34.458 989.542 0 947.2 0zm0 51.2c3.482 0 6.81.717 9.83 1.997L614.4 350.157 271.77 53.197c2.901-1.255 6.279-1.988 9.827-1.997H947.2zm0 512H281.6c-14.138 0-25.6-11.462-25.6-25.6V107.264l341.606 296.09c4.469 3.9 10.353 6.278 16.794 6.278s12.325-2.378 16.824-6.304L972.8 107.264V537.6c0 14.138-11.462 25.6-25.6 25.6z"/><path fill="none" stroke="#757575" stroke-width="51.2" d="m973.824 72.55 19.814-17.254-362.394 314.163 342.579-296.96zM597.606 369.51 614.4 384 254.976 72.55l342.579 296.96zM261.939 29.491l-1.178.512c.068-.046.456-.219.846-.386l.331-.126zm706.151.512-1.229-.512c.075.049.48.221.888.388l.341.124z"/></svg>